<svg xmlns="http://www.w3.org/2000/svg" xmlns:xlink="http://www.w3.org/1999/xlink" width="450" zoomAndPan="magnify" viewBox="0 0 337.5 97.5" height="130" preserveAspectRatio="xMidYMid meet" version="1.0"><defs><clipPath id="db594564fe"><path d="M 10.3125 20 L 61 20 L 61 81 L 10.3125 81 Z M 10.3125 20 " clip-rule="nonzero"/></clipPath><clipPath id="c1bee81f78"><path d="M 251 2.710938 L 335.644531 2.710938 L 335.644531 85 L 251 85 Z M 251 2.710938 " clip-rule="nonzero"/></clipPath><clipPath id="69bf2dbd90"><path d="M 158 75 L 229 75 L 229 94.492188 L 158 94.492188 Z M 158 75 " clip-rule="nonzero"/></clipPath></defs><path fill="#505967" d="M 70.316406 84.21875 C 69.625 84.265625 68.949219 84.308594 68.253906 84.308594 C 67.472656 84.308594 66.710938 84.238281 65.925781 84.21875 L 68.210938 78.691406 Z M 72.847656 90.484375 C 73.25 90.460938 73.878906 90.351562 74.503906 90.351562 C 75.132812 90.351562 75.917969 90.460938 76.253906 90.484375 C 75.246094 88.304688 73.765625 84.914062 72.914062 82.957031 C 72.109375 81.074219 70.765625 77.929688 69.691406 74.851562 C 69.445312 74.917969 69.21875 74.964844 68.972656 74.964844 C 68.703125 74.964844 68.480469 74.917969 68.234375 74.851562 C 67.699219 76.691406 66.394531 79.613281 64.132812 84.691406 L 61.535156 90.484375 C 61.847656 90.4375 62.164062 90.351562 62.542969 90.351562 C 62.902344 90.351562 63.328125 90.4375 63.617188 90.484375 C 63.976562 89.203125 64.691406 87.339844 65.40625 85.613281 C 66.304688 85.5625 67.203125 85.523438 68.097656 85.523438 C 69.0625 85.523438 70.003906 85.5625 70.96875 85.613281 L 71.90625 87.992188 Z M 72.847656 90.484375 " fill-opacity="1" fill-rule="nonzero"/><path fill="#505967" d="M 78.21875 80.265625 C 78.21875 84.105469 78.21875 87.8125 77.972656 90.484375 C 78.464844 90.464844 79.09375 90.351562 79.582031 90.351562 C 80.097656 90.351562 80.636719 90.464844 81.152344 90.484375 C 80.972656 88.664062 80.929688 86.238281 80.929688 82.894531 C 80.929688 80.621094 80.929688 76.738281 81.175781 75.074219 C 80.636719 75.140625 80.078125 75.210938 79.582031 75.210938 C 79.25 75.210938 78.417969 75.121094 77.992188 75.074219 C 78.21875 77.25 78.21875 78.847656 78.21875 80.265625 " fill-opacity="1" fill-rule="nonzero"/><path fill="#505967" d="M 91.539062 82.847656 C 93.582031 82.464844 95.441406 81.183594 95.441406 78.691406 C 95.441406 77.75 95.082031 76.828125 94.410156 76.175781 C 93.449219 75.253906 92.347656 75.074219 90.890625 75.074219 C 90.375 75.074219 87.777344 75.1875 87.195312 75.1875 C 86.054688 75.1875 85.46875 75.121094 84.957031 75.074219 C 85.113281 77.972656 85.113281 78.289062 85.113281 81.230469 C 85.113281 85.5625 85.089844 86.058594 84.910156 90.484375 C 85.40625 90.417969 85.945312 90.351562 86.453125 90.351562 C 87.015625 90.351562 87.507812 90.4375 87.957031 90.484375 C 87.957031 89.902344 87.867188 87.003906 87.867188 86.351562 L 87.867188 83.164062 L 88.40625 83.164062 C 89.617188 84.867188 91.003906 86.84375 92.144531 88.621094 C 92.480469 89.136719 92.976562 89.96875 93.3125 90.484375 C 93.984375 90.394531 94.253906 90.351562 95.128906 90.351562 C 95.933594 90.351562 96.492188 90.417969 97.117188 90.484375 C 95.707031 88.710938 95.101562 87.925781 93.335938 85.429688 C 92.996094 84.957031 92.503906 84.21875 92.167969 83.746094 Z M 87.867188 76.289062 C 88.203125 76.265625 89.035156 76.175781 89.460938 76.175781 C 90.195312 76.175781 90.9375 76.289062 91.539062 76.738281 C 92.324219 77.320312 92.480469 78.128906 92.480469 79.074219 C 92.480469 80.53125 91.65625 82.175781 89.414062 82.175781 C 88.832031 82.175781 88.292969 82.128906 87.867188 82.105469 Z M 87.867188 76.289062 " fill-opacity="1" fill-rule="nonzero"/><path fill="#505967" d="M 103.207031 85.230469 C 102.160156 82.105469 100.703125 77.726562 100.007812 75.074219 C 99.445312 75.164062 98.953125 75.210938 98.4375 75.210938 C 97.902344 75.210938 97.136719 75.121094 96.691406 75.074219 C 97.609375 77.5 98.390625 79.65625 99 81.363281 C 100.03125 84.285156 100.703125 86.308594 101.507812 88.773438 L 102.066406 90.484375 C 102.378906 90.417969 102.738281 90.351562 102.984375 90.351562 C 103.234375 90.351562 103.457031 90.394531 103.835938 90.484375 C 104.195312 89.316406 104.621094 87.878906 104.9375 86.957031 C 105.808594 84.398438 105.921875 84.039062 107.066406 80.847656 L 107.734375 78.984375 C 107.980469 79.703125 108.40625 80.847656 108.652344 81.566406 C 108.898438 82.265625 110.042969 85.703125 110.3125 86.464844 C 110.671875 87.476562 110.757812 87.765625 111.585938 90.484375 C 111.789062 90.460938 112.214844 90.351562 112.550781 90.351562 C 112.867188 90.351562 113.109375 90.417969 113.445312 90.484375 C 114.296875 87.8125 114.386719 87.542969 115.640625 83.949219 C 116.875 80.441406 117.636719 78.445312 118.976562 75.074219 C 118.640625 75.164062 118.308594 75.210938 117.972656 75.210938 C 117.546875 75.210938 117.1875 75.144531 116.941406 75.074219 C 116.136719 77.996094 115.734375 79.414062 115.082031 81.34375 C 114.03125 84.484375 113.894531 84.84375 113.246094 86.554688 C 112.53125 84.621094 111.835938 82.667969 111.183594 80.691406 C 110.828125 79.613281 109.457031 75.121094 109.4375 75.074219 C 109.125 75.144531 108.898438 75.210938 108.449219 75.210938 C 108.050781 75.210938 107.753906 75.121094 107.464844 75.074219 C 106.792969 77.816406 104.417969 84.421875 104.195312 85.027344 L 103.632812 86.488281 Z M 103.207031 85.230469 " fill-opacity="1" fill-rule="nonzero"/><path fill="#505967" d="M 125.8125 84.21875 C 125.117188 84.265625 124.445312 84.308594 123.75 84.308594 C 122.96875 84.308594 122.203125 84.238281 121.421875 84.21875 L 123.703125 78.691406 Z M 128.34375 90.484375 C 128.746094 90.460938 129.375 90.351562 130 90.351562 C 130.628906 90.351562 131.414062 90.460938 131.746094 90.484375 C 130.742188 88.304688 129.261719 84.914062 128.410156 82.957031 C 127.601562 81.074219 126.257812 77.929688 125.183594 74.851562 C 124.9375 74.917969 124.714844 74.964844 124.46875 74.964844 C 124.199219 74.964844 123.972656 74.917969 123.726562 74.851562 C 123.191406 76.691406 121.890625 79.613281 119.628906 84.691406 L 117.03125 90.484375 C 117.347656 90.4375 117.65625 90.351562 118.039062 90.351562 C 118.398438 90.351562 118.820312 90.4375 119.113281 90.484375 C 119.472656 89.203125 120.191406 87.339844 120.90625 85.613281 C 121.800781 85.5625 122.699219 85.523438 123.59375 85.523438 C 124.558594 85.523438 125.496094 85.5625 126.460938 85.613281 L 127.402344 87.992188 Z M 128.34375 90.484375 " fill-opacity="1" fill-rule="nonzero"/><path fill="#505967" d="M 137.746094 84.464844 C 137.746094 84.265625 137.878906 84.015625 138.039062 83.746094 C 138.980469 82.128906 139.851562 80.441406 140.859375 78.824219 C 141.195312 78.285156 142.832031 75.683594 143.167969 75.074219 C 142.921875 75.164062 142.675781 75.210938 142.226562 75.210938 C 141.734375 75.210938 141.285156 75.140625 140.925781 75.074219 C 139.3125 78.625 138.953125 79.386719 137.054688 82.667969 C 135.148438 79.324219 134.296875 77.546875 133.132812 75.074219 C 132.484375 75.1875 131.832031 75.210938 131.292969 75.210938 C 130.800781 75.210938 130.285156 75.164062 129.457031 75.074219 C 130.621094 77.027344 132.527344 80.128906 133.667969 82.105469 L 134.988281 84.398438 C 134.988281 85.792969 134.921875 88.730469 134.859375 90.484375 C 135.28125 90.4375 135.910156 90.351562 136.355469 90.351562 C 136.871094 90.351562 137.390625 90.4375 137.90625 90.484375 C 137.8125 88.394531 137.746094 87.183594 137.746094 85.292969 Z M 137.746094 84.464844 " fill-opacity="1" fill-rule="nonzero"/><path fill="#505967" d="M 144.460938 87.117188 C 144.351562 88.195312 144.324219 88.484375 143.945312 89.652344 C 144.75 90.058594 146.210938 90.800781 148.132812 90.800781 C 152.234375 90.800781 153.824219 88.171875 153.824219 85.878906 C 153.824219 85.25 153.667969 83.921875 152.726562 82.914062 C 152.078125 82.195312 151.40625 81.949219 149.679688 81.273438 C 147.710938 80.511719 146.566406 80.0625 146.566406 78.421875 C 146.566406 77.097656 147.441406 75.996094 149.210938 75.996094 C 150.621094 75.996094 151.808594 76.671875 152.144531 77.949219 L 152.457031 77.949219 C 152.660156 77.097656 152.707031 76.917969 153.152344 75.816406 C 152.054688 75.324219 151.066406 74.894531 149.433594 74.894531 C 145.378906 74.894531 144.214844 77.414062 144.214844 79.386719 C 144.214844 81.253906 144.867188 82.398438 147.035156 83.363281 C 147.664062 83.632812 148.71875 84.035156 149.34375 84.308594 C 149.769531 84.484375 151.183594 85.113281 151.183594 86.890625 C 151.183594 88.507812 150.015625 89.699219 148.246094 89.699219 C 146.925781 89.699219 145.804688 89.363281 144.773438 87.117188 Z M 144.460938 87.117188 " fill-opacity="1" fill-rule="nonzero"/><g clip-path="url(#db594564fe)"><path fill="#5c0632" d="M 20.007812 45.601562 C 20.007812 28.621094 29.082031 24.035156 35.9375 24.035156 C 46.960938 24.035156 51.730469 33.203125 51.730469 42.976562 C 51.730469 48.566406 51.058594 53.824219 48.304688 58.070312 C 45.546875 62.316406 40.980469 64.878906 36.003906 64.878906 C 23.574219 64.878906 20.007812 53.015625 20.007812 45.601562 M 53.476562 80.3125 C 55.492188 78.894531 58.652344 77.144531 60.9375 76.132812 L 45.75 66.695312 C 55.089844 63.394531 60.9375 55.035156 60.9375 43.648438 C 60.9375 27.476562 48.640625 20.601562 36.070312 20.601562 C 22.5 20.601562 10.804688 28.148438 10.804688 45.265625 C 10.804688 48.902344 11.609375 55.777344 17.253906 61.507812 C 23.101562 67.4375 30.023438 68.3125 35.871094 68.3125 C 36.609375 68.3125 37.347656 68.3125 38.089844 68.25 Z M 53.476562 80.3125 " fill-opacity="1" fill-rule="nonzero"/></g><path fill="#5c0632" d="M 92.289062 48.566406 C 90.203125 48.707031 88.191406 48.839844 86.105469 48.839844 C 83.753906 48.839844 81.46875 48.636719 79.117188 48.566406 L 85.972656 31.992188 Z M 99.882812 67.371094 C 101.09375 67.300781 102.976562 66.964844 104.855469 66.964844 C 106.742188 66.964844 109.089844 67.300781 110.101562 67.371094 C 107.074219 60.832031 102.640625 50.65625 100.085938 44.792969 C 97.664062 39.132812 93.632812 29.695312 90.410156 20.464844 C 89.667969 20.667969 88.996094 20.804688 88.257812 20.804688 C 87.453125 20.804688 86.777344 20.667969 86.039062 20.464844 C 84.425781 25.992188 80.53125 34.753906 73.742188 49.984375 L 65.941406 67.371094 C 66.886719 67.238281 67.828125 66.964844 68.96875 66.964844 C 70.042969 66.964844 71.324219 67.238281 72.195312 67.371094 C 73.269531 63.527344 75.421875 57.933594 77.570312 52.746094 C 80.257812 52.613281 82.945312 52.476562 85.636719 52.476562 C 88.523438 52.476562 91.347656 52.613281 94.242188 52.746094 L 97.058594 59.890625 Z M 99.882812 67.371094 " fill-opacity="1" fill-rule="nonzero"/><path fill="#5c0632" d="M 129.707031 33.203125 C 129.707031 30.644531 129.773438 28.082031 129.839844 25.652344 C 134.476562 25.652344 139.25 25.722656 143.214844 26.125 C 143.011719 25.046875 142.878906 24.445312 142.878906 23.703125 C 142.878906 23.164062 143.011719 22.28125 143.214844 21.140625 C 136.761719 21.476562 130.847656 21.542969 125.269531 21.542969 C 120.09375 21.542969 112.632812 21.476562 107.324219 21.140625 C 107.527344 21.949219 107.660156 22.824219 107.660156 23.632812 C 107.660156 24.445312 107.527344 25.320312 107.324219 26.125 C 110.753906 25.789062 117.207031 25.652344 117.808594 25.652344 L 121.171875 25.652344 C 121.238281 28.285156 121.304688 30.644531 121.304688 33.136719 L 121.371094 51.9375 C 121.371094 57.058594 120.96875 62.25 120.699219 67.371094 C 123.117188 67.101562 124.128906 66.96875 125.269531 66.96875 C 126.078125 66.96875 128.226562 67.167969 130.175781 67.371094 C 129.972656 65.484375 129.707031 63.257812 129.707031 58.140625 Z M 129.707031 33.203125 " fill-opacity="1" fill-rule="nonzero"/><path fill="#5c0632" d="M 167.113281 48.566406 C 165.03125 48.707031 163.015625 48.839844 160.929688 48.839844 C 158.578125 48.839844 156.292969 48.636719 153.941406 48.566406 L 160.796875 31.992188 Z M 174.707031 67.371094 C 175.917969 67.300781 177.800781 66.964844 179.679688 66.964844 C 181.5625 66.964844 183.914062 67.300781 184.921875 67.371094 C 181.898438 60.832031 177.464844 50.65625 174.910156 44.792969 C 172.488281 39.132812 168.457031 29.695312 165.230469 20.464844 C 164.492188 20.667969 163.820312 20.804688 163.082031 20.804688 C 162.273438 20.804688 161.601562 20.667969 160.863281 20.464844 C 159.25 25.992188 155.351562 34.753906 148.5625 49.984375 L 140.769531 67.371094 C 141.707031 67.238281 142.652344 66.964844 143.792969 66.964844 C 144.867188 66.964844 146.144531 67.238281 147.019531 67.371094 C 148.097656 63.527344 150.246094 57.933594 152.394531 52.746094 C 155.082031 52.613281 157.769531 52.476562 160.460938 52.476562 C 163.351562 52.476562 166.171875 52.613281 169.0625 52.746094 L 171.886719 59.890625 Z M 174.707031 67.371094 " fill-opacity="1" fill-rule="nonzero"/><path fill="#5c0632" d="M 211.988281 44.460938 C 218.105469 43.3125 223.683594 39.472656 223.683594 31.988281 C 223.683594 29.160156 222.605469 26.394531 220.589844 24.445312 C 217.703125 21.679688 214.40625 21.140625 210.039062 21.140625 C 208.492188 21.140625 200.699219 21.476562 198.949219 21.476562 C 195.519531 21.476562 193.773438 21.273438 192.230469 21.140625 C 192.699219 29.832031 192.699219 30.777344 192.699219 39.601562 C 192.699219 52.613281 192.632812 54.09375 192.097656 67.371094 C 193.574219 67.167969 195.1875 66.964844 196.730469 66.964844 C 198.410156 66.964844 199.890625 67.238281 201.234375 67.371094 C 201.234375 65.617188 200.96875 56.925781 200.96875 54.96875 L 200.96875 45.398438 L 202.582031 45.398438 C 206.210938 50.523438 210.378906 56.453125 213.804688 61.777344 C 214.8125 63.328125 216.289062 65.824219 217.296875 67.371094 C 219.3125 67.101562 220.121094 66.964844 222.738281 66.964844 C 225.160156 66.964844 226.839844 67.167969 228.722656 67.371094 C 224.488281 62.046875 222.675781 59.6875 217.363281 52.207031 C 216.355469 50.792969 214.878906 48.566406 213.871094 47.152344 Z M 200.96875 24.777344 C 201.972656 24.714844 204.460938 24.445312 205.738281 24.445312 C 207.957031 24.445312 210.171875 24.777344 211.988281 26.125 C 214.339844 27.878906 214.8125 30.304688 214.8125 33.136719 C 214.8125 37.515625 212.324219 42.4375 205.605469 42.4375 C 203.855469 42.4375 202.242188 42.300781 200.96875 42.234375 Z M 200.96875 24.777344 " fill-opacity="1" fill-rule="nonzero"/><path fill="#747f8a" d="M 312.453125 44.589844 C 312.453125 45.023438 306.371094 45.429688 297.683594 45.769531 C 296.152344 44.898438 294.988281 44.019531 294.136719 43.265625 C 304.667969 43.640625 312.453125 44.101562 312.453125 44.589844 " fill-opacity="1" fill-rule="nonzero"/><path fill="#747f8a" d="M 306.214844 29.886719 C 306.214844 30.246094 301.117188 30.585938 293.824219 30.878906 C 294.871094 30.269531 295.949219 29.652344 297.078125 29.035156 C 302.585938 29.289062 306.214844 29.582031 306.214844 29.886719 " fill-opacity="1" fill-rule="nonzero"/><path fill="#747f8a" d="M 251.898438 61.515625 C 248.523438 61.554688 245.5625 61.570312 243.253906 61.570312 C 239.925781 61.570312 237.230469 60.542969 237.230469 59.269531 C 237.230469 58 239.925781 56.972656 243.253906 56.972656 C 246.199219 56.972656 250.191406 57.003906 254.769531 57.0625 C 252.996094 59.625 252.15625 61.167969 252.078125 61.261719 C 252.027344 61.335938 251.960938 61.425781 251.898438 61.515625 " fill-opacity="1" fill-rule="nonzero"/><path fill="#747f8a" d="M 253.714844 64.59375 C 254.828125 65.941406 255.894531 67.074219 257.324219 68.3125 C 257.324219 68.3125 257.863281 69.085938 259.496094 68.421875 C 261.160156 67.746094 262.570312 66.820312 264.160156 64.683594 C 268.800781 64.761719 273.722656 64.863281 278.570312 64.972656 C 278.96875 65.558594 279.777344 66.761719 280.777344 68.25 C 267.269531 68.597656 252.609375 68.808594 245.097656 68.808594 C 241.972656 68.808594 239.433594 67.835938 239.433594 66.644531 C 239.433594 65.445312 241.972656 64.476562 245.097656 64.476562 C 247.386719 64.476562 250.332031 64.492188 253.707031 64.53125 C 253.703125 64.5625 253.714844 64.59375 253.714844 64.59375 " fill-opacity="1" fill-rule="nonzero"/><path fill="#747f8a" d="M 248.492188 75.890625 C 245.714844 75.890625 243.464844 75.035156 243.464844 73.976562 C 243.464844 72.917969 245.714844 72.058594 248.492188 72.058594 C 255.835938 72.058594 270.890625 72.285156 283.78125 72.648438 C 284.402344 73.542969 285.023438 74.429688 285.613281 75.246094 C 272.339844 75.636719 256.183594 75.890625 248.492188 75.890625 " fill-opacity="1" fill-rule="nonzero"/><path fill="#747f8a" d="M 291.3125 82.03125 C 280.484375 82.507812 261.867188 82.828125 254.132812 82.828125 C 251.953125 82.828125 250.183594 82.148438 250.183594 81.320312 C 250.183594 80.488281 251.953125 79.8125 254.132812 79.8125 C 261.53125 79.8125 278.910156 80.105469 289.875 80.542969 C 290.371094 81.078125 290.855469 81.578125 291.3125 82.03125 " fill-opacity="1" fill-rule="nonzero"/><path fill="#747f8a" d="M 263.0625 86.105469 C 269.453125 86.105469 288.898438 86.589844 288.898438 87.171875 C 288.898438 87.765625 269.449219 88.246094 263.0625 88.246094 C 261.820312 88.246094 260.8125 87.765625 260.8125 87.171875 C 260.8125 86.589844 261.820312 86.105469 263.0625 86.105469 " fill-opacity="1" fill-rule="nonzero"/><path fill="#747f8a" d="M 263.132812 46.675781 C 255.09375 46.8125 247.890625 46.886719 243.253906 46.886719 C 239.925781 46.886719 237.230469 45.859375 237.230469 44.585938 C 237.230469 43.316406 239.925781 42.285156 243.253906 42.285156 C 248.636719 42.285156 257.488281 42.390625 267.082031 42.570312 C 265.65625 43.984375 264.339844 45.359375 263.132812 46.675781 " fill-opacity="1" fill-rule="nonzero"/><path fill="#747f8a" d="M 302.574219 36.390625 C 307.285156 36.648438 310.25 36.929688 310.25 37.21875 C 310.25 37.542969 306.660156 37.851562 301.109375 38.125 C 302.296875 37.230469 302.554688 36.449219 302.574219 36.390625 " fill-opacity="1" fill-rule="nonzero"/><path fill="#747f8a" d="M 245.101562 39.382812 C 241.96875 39.382812 239.433594 38.414062 239.433594 37.21875 C 239.433594 36.023438 241.96875 35.054688 245.101562 35.054688 C 251.519531 35.054688 263.164062 35.210938 274.84375 35.46875 C 273.410156 36.679688 272.054688 37.878906 270.769531 39.054688 C 260.519531 39.261719 250.773438 39.382812 245.101562 39.382812 " fill-opacity="1" fill-rule="nonzero"/><path fill="#747f8a" d="M 280.007812 31.3125 C 268.066406 31.617188 255.128906 31.800781 248.492188 31.800781 C 245.714844 31.800781 243.46875 30.945312 243.46875 29.886719 C 243.46875 28.828125 245.714844 27.964844 248.492188 27.964844 C 255.816406 27.964844 270.835938 28.195312 283.710938 28.558594 C 283.070312 29.027344 282.421875 29.496094 281.769531 29.984375 C 281.171875 30.429688 280.585938 30.871094 280.007812 31.3125 " fill-opacity="1" fill-rule="nonzero"/><path fill="#747f8a" d="M 254.128906 24.046875 C 251.953125 24.046875 250.183594 23.371094 250.183594 22.539062 C 250.183594 21.707031 251.953125 21.03125 254.128906 21.03125 C 262.34375 21.03125 282.828125 21.394531 293.234375 21.914062 C 292.570312 22.351562 291.90625 22.800781 291.234375 23.257812 C 280.390625 23.726562 261.851562 24.046875 254.128906 24.046875 " fill-opacity="1" fill-rule="nonzero"/><path fill="#747f8a" d="M 242.632812 54.269531 C 239.246094 54.269531 236.496094 53.226562 236.496094 51.925781 C 236.496094 50.640625 239.246094 49.589844 242.632812 49.589844 C 246.875 49.589844 253.230469 49.652344 260.414062 49.761719 C 259.0625 51.355469 257.890625 52.828125 256.886719 54.152344 C 251.164062 54.226562 246.164062 54.269531 242.632812 54.269531 " fill-opacity="1" fill-rule="nonzero"/><path fill="#747f8a" d="M 260.8125 16.6875 C 260.8125 16.09375 261.820312 15.617188 263.066406 15.617188 C 269.449219 15.617188 288.898438 16.09375 288.898438 16.6875 C 288.898438 17.273438 269.453125 17.753906 263.066406 17.753906 C 261.820312 17.753906 260.8125 17.273438 260.8125 16.6875 " fill-opacity="1" fill-rule="nonzero"/><g clip-path="url(#c1bee81f78)"><path fill="#5c0632" d="M 313.089844 50.195312 C 313.136719 51.363281 313.128906 52.519531 313.070312 53.65625 C 301.753906 54.105469 291.027344 54.789062 291.027344 55.558594 C 291.027344 56.3125 301.515625 56.992188 312.699219 57.4375 C 312.503906 58.734375 312.25 60.003906 311.941406 61.25 C 300.914062 61.703125 290.683594 62.367188 290.683594 63.117188 C 290.683594 63.835938 300.234375 64.488281 310.8125 64.9375 C 310.328125 66.292969 309.777344 67.609375 309.160156 68.867188 C 300.078125 69.304688 292.570312 69.890625 292.570312 70.527344 C 292.570312 71.125 299.128906 71.675781 307.398438 72.101562 C 306.933594 72.859375 306.449219 73.601562 305.941406 74.300781 C 305.402344 75.066406 304.820312 75.824219 304.199219 76.570312 C 299.03125 76.960938 295.484375 77.410156 295.484375 77.886719 C 295.484375 78.300781 298.023438 78.683594 301.941406 79.027344 C 299.800781 81.148438 297.277344 83.128906 294.300781 84.859375 C 294.300781 84.859375 290.796875 81.832031 287.90625 78.296875 C 285.328125 75.144531 279.855469 66.835938 278.566406 64.976562 C 277.277344 63.117188 276.429688 62.570312 274.925781 63.109375 C 272.902344 63.828125 270.554688 64.1875 269.835938 64.1875 C 269.113281 64.1875 268.714844 63.90625 269.925781 63.425781 C 271.132812 62.9375 275.902344 60.679688 278.25 56.015625 C 280.886719 50.761719 278.566406 43.503906 278.566406 43.503906 C 277.683594 47.382812 275.667969 48.832031 275.667969 48.832031 C 276.320312 45.230469 275.609375 41.964844 273.835938 39.671875 L 272.847656 44.234375 C 272.847656 44.234375 272.230469 44.203125 270.699219 45.492188 C 269.167969 46.785156 268.746094 48.667969 268.746094 48.667969 C 269.953125 49.15625 271.398438 47.941406 271.398438 47.941406 C 269.550781 54.882812 266.898438 60.535156 264.960938 63.523438 C 263.027344 66.511719 261.433594 67.636719 259.496094 68.425781 C 257.863281 69.082031 257.324219 68.3125 257.324219 68.3125 C 255.898438 67.074219 254.828125 65.941406 253.71875 64.59375 C 253.71875 64.59375 253.628906 64.4375 253.929688 64.441406 C 254.722656 64.453125 256.140625 63.089844 256.449219 62.523438 C 256.804688 61.871094 256.765625 61.375 256.589844 61.339844 C 256.414062 61.3125 256.113281 61.828125 254.574219 62.796875 C 253.050781 63.769531 252.347656 63.09375 251.839844 62.554688 C 251.445312 62.125 251.832031 61.597656 252.078125 61.261719 C 252.3125 60.964844 260.390625 45.859375 281.769531 29.988281 C 309.78125 9.1875 327.675781 3.570312 328.699219 3.164062 C 329.375 2.898438 330.480469 2.542969 330.734375 2.804688 C 331.011719 3.09375 331.148438 3.328125 331.109375 3.667969 C 331.074219 4.003906 330.894531 4.179688 329.597656 4.753906 C 318.84375 9.503906 306.289062 17.421875 299.15625 22.03125 C 290.386719 26.316406 282.011719 32.4375 281.707031 32.582031 C 281.03125 33.003906 281.527344 33.617188 281.9375 33.359375 C 296.75 23.480469 314.113281 16.75 333.308594 11.238281 C 334.222656 10.976562 334.726562 10.976562 334.878906 11.179688 C 335.050781 11.402344 335.125 11.660156 335.152344 11.941406 C 335.175781 12.296875 334.886719 12.484375 334.097656 12.789062 C 313.480469 20.472656 298.285156 27.605469 288.511719 34.199219 C 288.511719 34.199219 287.5 34.8125 287.484375 35.519531 C 287.480469 35.789062 288.027344 35.820312 288.027344 35.820312 C 292.921875 35.910156 299.460938 36.195312 302.574219 36.378906 C 302.574219 36.378906 302.128906 37.960938 299.148438 39.234375 C 296.847656 40.21875 294.71875 40.058594 292.613281 40.078125 C 292.144531 40.070312 291.746094 40.542969 292.121094 41.050781 C 292.308594 41.300781 296.792969 48.542969 313.089844 50.195312 " fill-opacity="1" fill-rule="nonzero"/></g><g clip-path="url(#69bf2dbd90)"><path fill="#5c0632" d="M 163.683594 88.058594 L 160.921875 88.058594 C 160.921875 88.058594 160.550781 86.351562 161.550781 85.699219 C 162.554688 85.039062 163.683594 84.53125 163.683594 84.53125 Z M 176.792969 81.675781 C 176.792969 81.675781 175.113281 82.644531 174.050781 83.589844 C 172.996094 84.53125 174.269531 84.890625 174.269531 84.890625 L 174.269531 88.058594 L 166.253906 88.058594 L 166.253906 76.96875 C 166.253906 76.96875 163.332031 79.664062 163.058594 80.019531 C 162.773438 80.402344 163.753906 80.75 163.753906 80.75 L 163.585938 81.800781 C 163.585938 81.800781 162.421875 82.40625 161.007812 83.363281 C 159.605469 84.308594 158.566406 85.515625 158.566406 86.351562 C 158.566406 87.191406 158.210938 90.484375 158.210938 90.484375 L 176.792969 90.484375 Z M 160.199219 77.621094 C 161.113281 77.621094 161.757812 77.261719 161.757812 76.527344 C 161.757812 75.796875 161.332031 75.285156 160.199219 75.285156 C 159.191406 75.285156 158.921875 75.726562 158.921875 76.527344 C 158.921875 77.339844 159.273438 77.621094 160.199219 77.621094 M 163.613281 77.621094 C 164.539062 77.621094 165.164062 77.261719 165.164062 76.527344 C 165.164062 75.796875 164.742188 75.285156 163.613281 75.285156 C 162.605469 75.285156 162.339844 75.726562 162.339844 76.527344 C 162.339844 77.339844 162.6875 77.621094 163.613281 77.621094 M 168.792969 91.4375 C 167.792969 91.4375 167.515625 91.867188 167.515625 92.671875 C 167.515625 93.472656 167.871094 93.765625 168.792969 93.765625 C 169.707031 93.765625 170.355469 93.402344 170.355469 92.671875 C 170.355469 91.9375 169.933594 91.4375 168.792969 91.4375 M 172.34375 91.4375 C 171.34375 91.4375 171.070312 91.867188 171.070312 92.671875 C 171.070312 93.472656 171.433594 93.765625 172.34375 93.765625 C 173.273438 93.765625 173.910156 93.402344 173.910156 92.671875 C 173.910156 91.9375 173.488281 91.4375 172.34375 91.4375 M 212.386719 77.402344 C 213.304688 77.402344 213.953125 77.050781 213.953125 76.320312 C 213.953125 75.59375 213.527344 75.074219 212.386719 75.074219 C 211.386719 75.074219 211.117188 75.515625 211.117188 76.320312 C 211.117188 77.125 211.472656 77.402344 212.386719 77.402344 M 215.933594 77.402344 C 216.847656 77.402344 217.492188 77.050781 217.492188 76.320312 C 217.492188 75.59375 217.0625 75.074219 215.933594 75.074219 C 214.929688 75.074219 214.664062 75.515625 214.664062 76.320312 C 214.664062 77.125 215.007812 77.402344 215.933594 77.402344 M 225.734375 77.707031 C 225.234375 78.140625 225.378906 78.660156 226.011719 78.585938 L 226.011719 90.5 L 228.644531 90.5 L 228.644531 75.671875 C 228.644531 75.671875 226.222656 77.273438 225.734375 77.707031 M 215.152344 84.386719 L 213.449219 84.386719 C 213.449219 83.449219 215.152344 82.929688 215.152344 82.929688 Z M 203.9375 86.351562 C 203.9375 86.785156 203.914062 87.488281 203.894531 88.058594 L 189.023438 88.058594 L 189.023438 85.433594 C 189.410156 84.425781 190.066406 84.308594 191.078125 84.308594 L 201.953125 84.308594 C 204.300781 84.308594 203.9375 85.546875 203.9375 86.351562 M 221.328125 78.574219 L 221.328125 88.058594 L 217.789062 88.058594 L 217.789062 79.445312 C 217.789062 79.445312 217.0625 79.722656 216.070312 80.164062 C 215.085938 80.613281 211.527344 82.0625 211.527344 84.023438 L 211.527344 86.289062 L 215.152344 86.289062 L 215.152344 88.058594 L 206.546875 88.058594 C 206.554688 87.640625 206.5625 87.03125 206.5625 86.132812 C 206.5625 83.304688 204.164062 81.769531 202.027344 81.769531 L 192.078125 81.769531 C 190.335938 81.769531 189.492188 82.191406 189.023438 82.675781 L 189.023438 75.375 C 189.023438 75.375 187.46875 76.46875 186.328125 77.339844 C 185.1875 78.207031 186.328125 78.792969 186.328125 78.792969 L 186.328125 88.058594 L 183.066406 88.058594 L 182.996094 80.105469 C 182.996094 80.105469 180.726562 81.769531 180.078125 82.273438 C 179.445312 82.777344 179.796875 83.226562 180.507812 83.226562 C 180.507812 83.226562 180.375 89.097656 180.375 90.484375 C 180.375 91.878906 179.226562 93.46875 176.8125 92.746094 C 176.8125 92.746094 176.042969 92.894531 176.679688 93.472656 C 177.316406 94.050781 178.082031 94.492188 178.941406 94.492188 C 179.796875 94.492188 182.925781 93.902344 182.925781 90.484375 L 223.953125 90.484375 L 223.953125 75.660156 C 223.953125 75.660156 221.539062 77.261719 221.039062 77.695312 C 220.539062 78.128906 220.6875 78.648438 221.328125 78.574219 " fill-opacity="1" fill-rule="nonzero"/></g></svg>