<?xml version="1.0" encoding="UTF-8"?>
<!DOCTYPE svg PUBLIC "-//W3C//DTD SVG 1.1//EN" "http://www.w3.org/Graphics/SVG/1.1/DTD/svg11.dtd">
<!-- Creator: CorelDRAW (Evaluation Version) -->
<svg xmlns="http://www.w3.org/2000/svg" xml:space="preserve" width="150.368mm" height="160.977mm" version="1.1" style="shape-rendering:geometricPrecision; text-rendering:geometricPrecision; image-rendering:optimizeQuality; fill-rule:evenodd; clip-rule:evenodd"
viewBox="0 0 15036.78 16097.7"
 xmlns:xlink="http://www.w3.org/1999/xlink"
 xmlns:xodm="http://www.corel.com/coreldraw/odm/2003">
 <defs>
  <style type="text/css">
   <![CDATA[
    .str0 {stroke:#4A4A4A;stroke-width:20;stroke-linecap:round;stroke-linejoin:round;stroke-miterlimit:22.9256}
    .fil1 {fill:#4A4A4A}
    .fil0 {fill:#FCF6EC}
   ]]>
  </style>
 </defs>
 <g id="Layer_x0020_1">
  <metadata id="CorelCorpID_0Corel-Layer"/>
  <path class="fil0" d="M6586.99 8258.78c277.45,169.66 471.83,402 599.88,670.06l0 2186.04c-19.16,56.76 -39.33,112.42 -60.48,166.65 -89.11,228.49 -408.65,1100.72 -527.87,1214.46 -159.99,-275.71 9.82,-627.27 -920.31,-808.14 -106.15,-50.75 -222.43,-68.51 -335.06,-54.94 -273.66,-47.96 -578.25,-124.39 -739.58,-341.57 -1.89,-139.01 -83.35,-2512.79 -77.81,-2766.8 -192.78,-181.58 77.15,-273.55 274.73,-626.52 136.04,68.26 33.09,2342.22 206.73,2508.52 534.31,189.23 1600.35,311.49 1937.96,824.76 4.16,6.33 12.61,19.51 19.49,28.87 8.86,-442.96 4.35,-675.34 -71.78,-1108.7 -152.77,-5.95 -1688.4,839.8 -1598.88,-743.22 23.43,-414.45 130.27,-785.36 270.35,-1126.57 102.36,-249.33 328.82,-800.34 469.28,-939.28 -34.42,546.31 221.15,713.24 553.35,916.38zm-368.6 1056.13c-323.65,-58.01 -433.85,-198.21 -503.87,-450.64 321.57,354.21 382.96,322.7 503.87,450.64z"/>
  <path class="fil0" d="M8806.29 9750.62c-33.13,525.68 212.8,686.31 532.47,881.79 963.95,589.47 887.2,1964.56 519.04,2908.65 -85.75,219.88 -393.23,1059.18 -507.96,1168.63 -162.01,-279.2 27.47,-639.23 -1035.04,-803.59 -15.65,-2.42 -60.48,-8.17 -75.52,-10.61 -278.65,-45.09 -528.76,-16.86 -707.06,-239.44 -12.26,9.24 -115.2,400.02 -128.65,410.21l-7.99 -14066.26 307.4 0c-77.29,3539.25 -31.8,11334.72 -20.75,12642.74 440.75,218.86 1644.18,307.24 2001.19,850 4,6.1 12.13,18.77 18.75,27.78 8.52,-426.26 4.2,-649.86 -69.05,-1066.86 -147.02,-5.72 -1624.68,808.09 -1538.56,-715.17 22.55,-398.81 125.36,-755.72 260.15,-1084.05 98.5,-239.91 316.42,-770.13 451.58,-903.82zm-1470.39 -9750.62l0 14032.28 -55.68 0 0 -14032.28 55.68 0zm1648.16 11648.69c-311.44,-55.84 -417.48,-190.75 -484.83,-433.66 309.41,340.85 368.49,310.55 484.83,433.66z"/>
  <path class="fil0" d="M12957.86 10438.38c-224.98,-120.7 -487.5,-315.34 -787.35,-485.1 -311.29,-176.23 -434.97,-253.48 -537.44,-633.04 442.37,153.53 1251.81,613.33 1324.79,1118.14zm-56.94 1671.23c153.8,-542.65 420.76,-795.99 232.59,-1445.3 -146.41,-505.25 893.49,-925.1 -1464.05,-2054.09 -146.53,239.64 -235.93,641.54 -301.92,959.69 -171.61,827.31 500.53,840.55 1184.26,1311.48 245.02,168.75 300.85,261.18 345.1,400.43 31.76,99.98 -81.58,633.89 4.02,827.79z"/>
  <path class="fil0" d="M12423.12 12572.92c659.06,-406.94 904.34,-1126.08 -176.37,-1541.56 -376.09,-144.57 -812.05,-179.93 -1240.45,-180.54 -321.7,-0.46 -315.47,37.99 -475.5,201.15 -126.63,129.09 -259.47,238.05 -377.5,390.92 710.95,-29 2496.42,136.84 2212.58,1120.26 -87.25,3.98 -505.72,-260.58 -704.09,-343.05 -331.23,-137.68 -888.29,-310.77 -1384.16,-325.26 27.45,215.81 26.93,439.83 4.72,661.92 67.02,6.75 131.74,15.15 192.4,26.05 770.82,138.48 2232.7,827.53 1690.15,1729.24 -276.32,459.24 -1126.33,874.39 -1498.14,1007.47 -2156.05,771.69 -4209.34,556.44 -5931.14,-814.19 -2248.22,-1789.69 -2785.01,-4804.3 -1290.1,-7197.74 242.34,-388.02 815.34,-1035.1 1176.13,-1328.53 109.48,-89.05 215.1,-136.65 355.5,-247.72 632.75,-500.47 1440.45,-827.76 2303.06,-976.82l0 -376.34c-259.44,41.44 -521.48,100.35 -785.92,177.55 -2615.89,763.6 -4348.13,3249.21 -4226.37,5907.35 90.31,1971.48 1167.85,3732.62 2782.32,4750.96 1850.82,1167.42 4224.71,1132.9 6056.56,162.55 775.2,-410.63 2277.65,-1409.03 1617.04,-2404.54 -241.82,-364.4 -206.12,-150.76 -300.72,-399.13zm-5087.22 -7827.98c20.74,-3.4 41.57,-6.5 62.37,-9.68l-0.21 -374.73 -62.16 8.99 0 375.42zm324.55 -44.38c1285.71,-142.27 2652.1,101.5 3719.96,748.72 458.02,277.58 1089.42,791.8 1526.69,1291 17.01,-12.62 66.07,-83.22 16.2,-53.17 -543.45,-710.02 -1397.65,-1433.22 -2151.68,-1791.26 -975.18,-463.05 -2018.01,-669.85 -3110.23,-566.19l-0.94 370.9z"/>
  <path class="fil1" d="M13568.11 6213.98c340.31,-346.68 1076.26,-305.47 1094.93,275.07 13.9,432.1 -319.08,814.2 -762.92,1044.65 -778.94,404.41 -1858.66,-142.54 -2882.06,-118.16 -2287.2,54.48 -1973.24,3008.14 -265.48,2255.94 484.45,-213.39 775.68,-662.01 768.47,-1085.91 -167.93,395.36 -379.13,852.44 -1072.41,994.97 -998.47,205.28 -1225.97,-1000.96 -375.21,-1436.14 1341.76,-686.32 3347.85,1479.52 4733.96,-1419.32 65.69,-137.37 99.51,-165.6 141.28,-326.35 86.15,-331.53 244.25,-763.34 -317.41,-971.81 -644.15,-239.08 -988.95,504.44 -1063.15,787.06z"/>
  <path class="fil1" d="M14097.54 10762.65l37.2 -28.86 48.95 -50.92 45.25 -43.4 47.99 -43.54 45.19 -45.01 43.2 -55.63 14.03 -25.55c-217.2,169.89 -399.66,400.93 -593.84,605.07 -153.59,161.48 -490.13,366.62 -491.19,672.6 157.7,313.94 717.39,365.44 557.12,692.95 -129.67,264.98 -581.59,371.57 -556.66,808.85 117.21,157.18 153.05,131.25 341.76,251.62 333.81,212.91 247.97,223.68 238.28,366.67 210.38,-115.58 596.86,-412.21 596.04,-727.7 -118.78,-213.42 -399.34,-313.12 -584.56,-479.36 8.09,-493.82 551.18,-543.84 592.71,-880.84 22.4,-181.78 -173.37,-277.26 -305.42,-354.2 -480.58,-279.96 -285.14,-439.02 -76.05,-662.75z"/>
  <path class="fil0" d="M11376.08 13999.43c-312.19,261.42 -921.93,459.47 -1152.84,542.33 -1806.74,648.26 -3528.01,469.17 -4972.15,-678.6 -1885.68,-1498.69 -2337.61,-4025.26 -1086.11,-6032.48 202.9,-325.4 682.76,-868.16 985,-1114.37 91.7,-74.71 180.22,-114.69 297.83,-207.87 1385.21,-1097.41 3772.52,-1205.4 5367.18,-240.61 256.8,155.35 627,357.39 915.33,616.29 32.16,-11.15 4.92,7.84 39.55,-0.91 -432.56,-445.28 -976.83,-847.29 -1465.54,-1078.88 -1104.64,-523.46 -2312.42,-655.03 -3585.58,-282.32 -2192.21,641.78 -3642.59,2726.41 -3538.79,4954.45 76.98,1652.49 981.35,3128 2335.31,3980.55 1552.18,977.35 3542,946.86 5076.86,132.3 225.82,-119.85 541.69,-376.12 812.99,-594.3l-29.04 4.42z"/>
  <path class="fil1" d="M8592.78 6461.51l32.34 -32.37 41.01 -55.07 38.34 -47.37 40.97 -47.83 38.1 -48.91 34.87 -58.92 10.42 -26.35c-188.74,190.3 -336.54,435.34 -498.9,655.88 -128.43,174.44 -427.96,413.28 -391.69,708.47 190.35,283.51 736.35,264.96 621.71,600.32 -92.74,271.33 -515.55,429.21 -438.2,847.85 132.18,137.28 163.58,107.91 360.24,200.98 347.85,164.63 266.39,185.48 274.47,324.54 188.79,-137.1 525.33,-470.25 486.07,-774.38 -140.55,-191.33 -423.26,-253.28 -622.13,-391.01 -52.39,-477.19 465.22,-591.62 464.2,-921.66 -0.57,-178.03 -200.99,-246.24 -337.71,-304.33 -497.56,-211.4 -328.48,-388.61 -154.11,-629.84z"/>
  <path class="fil1" d="M6592.57 6470.83c-29.56,42.41 -59.21,84.52 -89.46,125.6 -106.89,145.22 -356.22,344.02 -326.02,589.72 140.87,209.84 515.79,220.89 530.07,417.01 18.32,4.24 -29.46,223.56 -11.74,229.8 33.63,11.83 436.07,-674.84 435.86,-741.17 -0.47,-148.19 -167.31,-204.95 -281.09,-253.32 -290.72,-123.49 -308.02,-233.02 -242.29,-356.75 -5.18,-3.54 -10.29,-7.16 -15.33,-10.89z"/>
  <path class="fil1" d="M5573.78 12345.98l-4.64 29.58c-26.94,167.52 -150,441.2 -18.98,633.8 234.15,129.29 607.82,-79.26 648.13,195.41 32.6,222.2 -205.34,483.65 -1.48,747.56 141.26,48.25 152.61,16.54 322.93,10.91 301.25,-9.96 251.99,33.76 307.45,127.73 82.39,-163.14 197.43,-515.75 61.12,-713.54 -166.45,-82.9 -385.55,-24.77 -573.42,-49.46 -207.44,-313.6 112.09,-578.75 -6.87,-808.28 -64.18,-123.8 -228.23,-99.5 -344.26,-90.98 -187.06,13.74 -280.56,-14.75 -323.7,-70.73 -21.93,-2.63 -44.05,-6.63 -66.28,-12z"/>
  <circle class="fil1 str0" cx="11691" cy="6886.56" r="263.31"/>
  <circle class="fil1 str0" cx="12881.28" cy="6697.13" r="263.31"/>
  <circle class="fil1 str0" cx="11300" cy="14031.18" r="263.31"/>
  <path class="fil0" d="M4881.27 11067.94c-108.01,95.55 -232.98,179.93 -368.29,250.18 -778.95,404.41 -1858.66,-142.54 -2882.06,-118.15 -2287.22,54.47 -1973.25,3008.13 -265.49,2255.93 484.45,-213.38 775.69,-662.01 768.47,-1085.89 -167.93,395.34 -379.12,852.42 -1072.4,994.96 -998.47,205.28 -1225.99,-1000.96 -375.21,-1436.15 1223.96,-626.07 3000.69,1120.5 4355.38,-768.4 -56.48,-21.82 -110.59,-52.54 -160.4,-92.48z"/>
 </g>
</svg>
