<svg width="600" height="400" viewBox="0 0 600 400" fill="none" xmlns="http://www.w3.org/2000/svg">
  <!-- Top image: Makkah Clock Tower and buildings -->
  <g clip-path="url(#clip-top)">
    <rect x="50" y="0" width="500" height="200" rx="40" fill="#E6F0FF"/>
    <rect x="100" y="50" width="80" height="150" fill="#D9C09F"/>
    <rect x="200" y="30" width="100" height="170" fill="#E5D3B3"/>
    <rect x="320" y="10" width="60" height="190" fill="#D9C09F"/>
    <rect x="400" y="40" width="90" height="160" fill="#E5D3B3"/>
    <!-- Clock Tower -->
    <rect x="320" y="10" width="60" height="100" fill="#C8A27A"/>
    <circle cx="350" cy="50" r="20" fill="#FFFFFF" stroke="#AD5628" stroke-width="2"/>
  </g>
  
  <!-- Bottom left image: Masjid Nabawi with green dome -->
  <g clip-path="url(#clip-bottom-left)">
    <rect x="50" y="220" width="230" height="180" rx="20" fill="#E6F0FF"/>
    <!-- Minaret -->
    <rect x="180" y="240" width="20" height="120" fill="#F5F5F5"/>
    <!-- Green Dome -->
    <ellipse cx="120" cy="300" rx="50" ry="25" fill="#1A8754"/>
    <!-- Building -->
    <rect x="70" y="300" width="100" height="80" fill="#F5F5F5"/>
  </g>
  
  <!-- Bottom right image: Kaaba -->
  <g clip-path="url(#clip-bottom-right)">
    <rect x="320" y="220" width="230" height="180" rx="20" fill="#F5F5F5"/>
    <!-- Kaaba -->
    <rect x="370" y="270" width="130" height="130" fill="#111111"/>
    <!-- Gold door -->
    <rect x="420" y="300" width="30" height="60" fill="#AD5628"/>
    <!-- Kiswah details -->
    <rect x="370" y="270" width="130" height="20" fill="#222222"/>
    <rect x="370" y="290" width="130" height="3" fill="#AD5628"/>
  </g>
  
  <!-- Clip paths for rounded corners -->
  <defs>
    <clipPath id="clip-top">
      <rect x="50" y="0" width="500" height="200" rx="40" fill="white"/>
    </clipPath>
    <clipPath id="clip-bottom-left">
      <rect x="50" y="220" width="230" height="180" rx="20" fill="white"/>
    </clipPath>
    <clipPath id="clip-bottom-right">
      <rect x="320" y="220" width="230" height="180" rx="20" fill="white"/>
    </clipPath>
  </defs>
</svg>