<!DOCTYPE svg PUBLIC "-//W3C//DTD SVG 1.1//EN" "http://www.w3.org/Graphics/SVG/1.1/DTD/svg11.dtd">
<!-- Uploaded to: SVG Repo, www.svgrepo.com, Transformed by: SVG Repo Mixer Tools -->
<svg fill="#AD5628" height="64px" width="64px" version="1.1" id="Layer_1" xmlns="http://www.w3.org/2000/svg" xmlns:xlink="http://www.w3.org/1999/xlink" viewBox="0 0 512 512" xml:space="preserve">
<g id="SVGRepo_bgCarrier" stroke-width="0"/>
<g id="SVGRepo_tracerCarrier" stroke-linecap="round" stroke-linejoin="round"/>
<g id="SVGRepo_iconCarrier"> <g> <g> <path d="M95.488,319.15H68.714c2.268,17.562,9.685,33.521,20.693,46.324c3.834-2.906,7.832-5.55,11.971-7.918 C98.213,345.635,96.211,332.648,95.488,319.15z"/> </g> </g> <g> <g> <path d="M89.407,249.985c-11.009,12.802-18.425,28.762-20.693,46.323h26.774c0.725-13.499,2.725-26.485,5.89-38.404 C97.237,255.535,93.24,252.891,89.407,249.985z"/> </g> </g> <g> <g> <path d="M131.474,242.038c-0.575,1.15-1.13,2.329-1.671,3.531c5.011,1.591,10.173,2.733,15.434,3.412V223.61 C140.335,227.503,135.606,233.773,131.474,242.038z"/> </g> </g> <g> <g> <path d="M122.563,267.223c-2.172,9.075-3.587,18.876-4.196,29.086h26.869v-24.336C137.488,271.18,129.898,269.577,122.563,267.223 z"/> </g> </g> <g> <g> <path d="M223.906,249.986c-3.834,2.906-7.832,5.55-11.971,7.918c3.165,11.92,5.166,24.906,5.89,38.404h26.774 C242.331,278.748,234.915,262.788,223.906,249.986z"/> </g> </g> <g> <g> <path d="M168.078,319.15v24.337c7.747,0.792,15.339,2.396,22.674,4.75c2.172-9.075,3.587-18.876,4.196-29.087H168.078z"/> </g> </g> <g> <g> <path d="M217.825,319.151v-0.001c-0.724,13.499-2.725,26.486-5.89,38.406c4.14,2.368,8.138,5.012,11.972,7.918 c11.008-12.802,18.424-28.762,20.692-46.323H217.825z"/> </g> </g> <g> <g> <path d="M168.078,366.477v25.371c4.9-3.893,9.63-10.162,13.763-18.428c0.575-1.15,1.13-2.329,1.671-3.531 C178.5,368.298,173.338,367.156,168.078,366.477z"/> </g> </g> <g> <g> <path d="M129.803,369.889c0.541,1.201,1.096,2.381,1.671,3.531c4.132,8.265,8.861,14.535,13.763,18.428v-25.371 C139.977,367.156,134.815,368.297,129.803,369.889z"/> </g> </g> <g> <g> <path d="M181.84,242.038c-4.132-8.265-8.862-14.535-13.763-18.428v25.371c5.259-0.679,10.421-1.82,15.434-3.412 C182.971,244.367,182.415,243.187,181.84,242.038z"/> </g> </g> <g> <g> <path d="M118.367,319.15c0.608,10.211,2.024,20.012,4.196,29.087c7.336-2.354,14.926-3.958,22.674-4.75V319.15H118.367z"/> </g> </g> <g> <g> <path d="M190.751,267.223c-7.336,2.355-14.926,3.958-22.674,4.75v24.336h26.869C194.338,286.098,192.923,276.298,190.751,267.223z "/> </g> </g> <g> <g> <path d="M505.479,197.457l-42.329-31.656l-110.233,262.79l155.843-208.384C514.138,213.019,512.668,202.832,505.479,197.457z"/> </g> </g> <g> <g> <path d="M452.68,60.168L314.147,2.058c-8.278-3.473-17.803,0.424-21.275,8.702l-24.845,59.224h31.755 c13.328,0,25.393,5.49,34.07,14.32l9.608-22.906c3.66-8.724,13.701-12.833,22.424-9.17c8.725,3.659,12.831,13.699,9.171,22.424 l-27.482,65.516v50.192l45.894-109.41c3.66-8.724,13.699-12.833,22.424-9.17c8.725,3.659,12.831,13.699,9.171,22.424 l-77.488,184.734v73.811L461.381,81.443C464.853,73.165,460.958,63.64,452.68,60.168z"/> </g> </g> <g> <g> <path d="M299.784,104.246H13.53c-7.473,0-13.53,6.057-13.53,13.53v379.905c0,7.473,6.057,13.53,13.53,13.53h286.253 c7.473,0,13.53-6.057,13.53-13.53V117.776C313.314,110.304,307.257,104.246,299.784,104.246z M110.021,132.798h93.27 c9.462,0,17.132,7.67,17.132,17.132c0,9.462-7.67,17.132-17.132,17.132h-93.27c-9.462,0-17.132-7.67-17.132-17.132 C92.89,140.468,100.56,132.798,110.021,132.798z M223.85,475.426H89.463c-9.462,0-17.132-7.67-17.132-17.132 c0-9.462,7.67-17.132,17.132-17.132H223.85c9.462,0,17.132,7.67,17.132,17.132C240.981,467.756,233.311,475.426,223.85,475.426z M241.039,380.601c-9.89,9.892-36.436,38.673-84.382,38.673c-61.183,0-111.544-49.75-111.544-111.544 c0-61.497,50.034-111.544,111.544-111.544c61.157,0,111.544,49.725,111.544,111.544 C268.201,335.56,255.161,366.478,241.039,380.601z"/> </g> </g> </g>
</svg>