<svg xmlns="http://www.w3.org/2000/svg" xmlns:xlink="http://www.w3.org/1999/xlink" width="1366" zoomAndPan="magnify" viewBox="0 0 1024.5 576" height="768" preserveAspectRatio="xMidYMid meet" version="1.0"><defs><filter x="0%" y="0%" width="100%" height="100%" id="829b238285"><feColorMatrix values="0 0 0 0 1 0 0 0 0 1 0 0 0 0 1 0 0 0 1 0" color-interpolation-filters="sRGB"/></filter><clipPath id="ab8663dafe"><path d="M 0 0.140625 L 1024 0.140625 L 1024 575.859375 L 0 575.859375 Z M 0 0.140625 " clip-rule="nonzero"/></clipPath><clipPath id="4829ceb305"><path d="M 449 0.140625 L 1024 0.140625 L 1024 420 L 449 420 Z M 449 0.140625 " clip-rule="nonzero"/></clipPath><mask id="b2e0abda90"><g filter="url(#829b238285)"><rect x="-102.45" width="1229.4" fill="#000000" y="-57.6" height="691.2" fill-opacity="0.5"/></g></mask><clipPath id="b3aeb641b0"><path d="M 0.0625 0.140625 L 574.992188 0.140625 L 574.992188 419 L 0.0625 419 Z M 0.0625 0.140625 " clip-rule="nonzero"/></clipPath><clipPath id="e157f1c4a8"><rect x="0" width="575" y="0" height="420"/></clipPath></defs><g clip-path="url(#ab8663dafe)"><path fill="#ffffff" d="M 0 0.140625 L 1024 0.140625 L 1024 575.859375 L 0 575.859375 Z M 0 0.140625 " fill-opacity="1" fill-rule="nonzero"/><path fill="#fcf6ec" d="M 0 0.140625 L 1024 0.140625 L 1024 575.859375 L 0 575.859375 Z M 0 0.140625 " fill-opacity="1" fill-rule="nonzero"/></g><g clip-path="url(#4829ceb305)"><g mask="url(#b2e0abda90)"><g transform="matrix(1, 0, 0, 1, 449, -0.000000000000058398)"><g clip-path="url(#e157f1c4a8)"><g clip-path="url(#b3aeb641b0)"><path fill="#ad5628" d="M 204.050781 0.617188 C 204.050781 0.617188 190.339844 33.175781 120.699219 32.867188 C 51.058594 32.554688 6.503906 31.617188 0.738281 109.203125 C -5.023438 186.789062 92.65625 159.679688 138.773438 228.851562 C 184.886719 298.179688 121.011719 319.679688 183.796875 380.441406 C 246.582031 441.199219 340.058594 417.519531 398.945312 387.605469 C 509.402344 331.363281 574.992188 401.628906 574.992188 401.628906 L 574.992188 0.617188 Z M 204.050781 0.617188 " fill-opacity="1" fill-rule="nonzero"/></g></g></g></g></g></svg>